<svg xmlns="http://www.w3.org/2000/svg" xmlns:xlink="http://www.w3.org/1999/xlink" xmlns:sketch="http://www.bohemiancoding.com/sketch/ns" width="174px" height="47px" viewBox="0 0 174 47" version="1.1">
    <title>Untitled 2</title>
    <description>Created with Sketch (http://www.bohemiancoding.com/sketch)</description>
    <defs>
        <filter x="-20%" y="-20%" width="140%" height="140%" filterUnits="objectBoundingBox" id="filter-1">
            <feOffset dx="0" dy="1" in="SourceAlpha" result="shadowOffsetOuter1"/>
            <feGaussianBlur stdDeviation="1.5" in="shadowOffsetOuter1" result="shadowBlurOuter1"/>
            <feColorMatrix values="0 0 0 0 0   0 0 0 0 0   0 0 0 0 0  0 0 0 0.3 0" in="shadowBlurOuter1" type="matrix" result="shadowMatrixOuter1"/>
            <feMerge>
                <feMergeNode in="shadowMatrixOuter1"/>
                <feMergeNode in="SourceGraphic"/>
            </feMerge>
        </filter>
        <filter x="-20%" y="-20%" width="140%" height="140%" filterUnits="objectBoundingBox" id="filter-2">
            <feOffset dx="0" dy="1" in="SourceAlpha" result="shadowOffsetOuter1"/>
            <feGaussianBlur stdDeviation="1.5" in="shadowOffsetOuter1" result="shadowBlurOuter1"/>
            <feColorMatrix values="0 0 0 0 0   0 0 0 0 0   0 0 0 0 0  0 0 0 0.3 0" in="shadowBlurOuter1" type="matrix" result="shadowMatrixOuter1"/>
            <feMerge>
                <feMergeNode in="shadowMatrixOuter1"/>
                <feMergeNode in="SourceGraphic"/>
            </feMerge>
        </filter>
        <filter x="-20%" y="-20%" width="140%" height="140%" filterUnits="objectBoundingBox" id="filter-3">
            <feOffset dx="0" dy="1" in="SourceAlpha" result="shadowOffsetOuter1"/>
            <feGaussianBlur stdDeviation="1.5" in="shadowOffsetOuter1" result="shadowBlurOuter1"/>
            <feColorMatrix values="0 0 0 0 0   0 0 0 0 0   0 0 0 0 0  0 0 0 0.3 0" in="shadowBlurOuter1" type="matrix" result="shadowMatrixOuter1"/>
            <feMerge>
                <feMergeNode in="shadowMatrixOuter1"/>
                <feMergeNode in="SourceGraphic"/>
            </feMerge>
        </filter>
        <filter x="-20%" y="-20%" width="140%" height="140%" filterUnits="objectBoundingBox" id="filter-4">
            <feOffset dx="0" dy="1" in="SourceAlpha" result="shadowOffsetOuter1"/>
            <feGaussianBlur stdDeviation="1.5" in="shadowOffsetOuter1" result="shadowBlurOuter1"/>
            <feColorMatrix values="0 0 0 0 0   0 0 0 0 0   0 0 0 0 0  0 0 0 0.3 0" in="shadowBlurOuter1" type="matrix" result="shadowMatrixOuter1"/>
            <feMerge>
                <feMergeNode in="shadowMatrixOuter1"/>
                <feMergeNode in="SourceGraphic"/>
            </feMerge>
        </filter>
        <filter x="-20%" y="-20%" width="140%" height="140%" filterUnits="objectBoundingBox" id="filter-5">
            <feOffset dx="0" dy="1" in="SourceAlpha" result="shadowOffsetOuter1"/>
            <feGaussianBlur stdDeviation="1.5" in="shadowOffsetOuter1" result="shadowBlurOuter1"/>
            <feColorMatrix values="0 0 0 0 0   0 0 0 0 0   0 0 0 0 0  0 0 0 0.3 0" in="shadowBlurOuter1" type="matrix" result="shadowMatrixOuter1"/>
            <feMerge>
                <feMergeNode in="shadowMatrixOuter1"/>
                <feMergeNode in="SourceGraphic"/>
            </feMerge>
        </filter>
        <filter x="-20%" y="-20%" width="140%" height="140%" filterUnits="objectBoundingBox" id="filter-6">
            <feOffset dx="0" dy="1" in="SourceAlpha" result="shadowOffsetOuter1"/>
            <feGaussianBlur stdDeviation="1.5" in="shadowOffsetOuter1" result="shadowBlurOuter1"/>
            <feColorMatrix values="0 0 0 0 0   0 0 0 0 0   0 0 0 0 0  0 0 0 0.3 0" in="shadowBlurOuter1" type="matrix" result="shadowMatrixOuter1"/>
            <feMerge>
                <feMergeNode in="shadowMatrixOuter1"/>
                <feMergeNode in="SourceGraphic"/>
            </feMerge>
        </filter>
        <filter x="-20%" y="-20%" width="140%" height="140%" filterUnits="objectBoundingBox" id="filter-7">
            <feOffset dx="0" dy="1" in="SourceAlpha" result="shadowOffsetOuter1"/>
            <feGaussianBlur stdDeviation="1.5" in="shadowOffsetOuter1" result="shadowBlurOuter1"/>
            <feColorMatrix values="0 0 0 0 0   0 0 0 0 0   0 0 0 0 0  0 0 0 0.3 0" in="shadowBlurOuter1" type="matrix" result="shadowMatrixOuter1"/>
            <feMerge>
                <feMergeNode in="shadowMatrixOuter1"/>
                <feMergeNode in="SourceGraphic"/>
            </feMerge>
        </filter>
        <filter x="-20%" y="-20%" width="140%" height="140%" filterUnits="objectBoundingBox" id="filter-8">
            <feOffset dx="0" dy="1" in="SourceAlpha" result="shadowOffsetOuter1"/>
            <feGaussianBlur stdDeviation="1.5" in="shadowOffsetOuter1" result="shadowBlurOuter1"/>
            <feColorMatrix values="0 0 0 0 0   0 0 0 0 0   0 0 0 0 0  0 0 0 0.3 0" in="shadowBlurOuter1" type="matrix" result="shadowMatrixOuter1"/>
            <feMerge>
                <feMergeNode in="shadowMatrixOuter1"/>
                <feMergeNode in="SourceGraphic"/>
            </feMerge>
        </filter>
        <filter x="-20%" y="-20%" width="140%" height="140%" filterUnits="objectBoundingBox" id="filter-9">
            <feOffset dx="0" dy="1" in="SourceAlpha" result="shadowOffsetOuter1"/>
            <feGaussianBlur stdDeviation="1.5" in="shadowOffsetOuter1" result="shadowBlurOuter1"/>
            <feColorMatrix values="0 0 0 0 0   0 0 0 0 0   0 0 0 0 0  0 0 0 0.3 0" in="shadowBlurOuter1" type="matrix" result="shadowMatrixOuter1"/>
            <feMerge>
                <feMergeNode in="shadowMatrixOuter1"/>
                <feMergeNode in="SourceGraphic"/>
            </feMerge>
        </filter>
        <filter x="-20%" y="-20%" width="140%" height="140%" filterUnits="objectBoundingBox" id="filter-10">
            <feOffset dx="0" dy="1" in="SourceAlpha" result="shadowOffsetOuter1"/>
            <feGaussianBlur stdDeviation="1.5" in="shadowOffsetOuter1" result="shadowBlurOuter1"/>
            <feColorMatrix values="0 0 0 0 0   0 0 0 0 0   0 0 0 0 0  0 0 0 0.3 0" in="shadowBlurOuter1" type="matrix" result="shadowMatrixOuter1"/>
            <feMerge>
                <feMergeNode in="shadowMatrixOuter1"/>
                <feMergeNode in="SourceGraphic"/>
            </feMerge>
        </filter>
    </defs>
    <g id="Page-1" stroke="none" stroke-width="1" fill="none" fill-rule="evenodd" sketch:type="MSPage">
        <g id="Group" sketch:type="MSLayerGroup" fill="#FFFFFF">
            <path d="M50.7 15.3 C50.7 14.4 51.2 13.9 52.1 13.9 L53.6 13.9 C54.5 13.9 54.9 14.4 54.9 15.3 L54.9 29.6 C54.9 30.5 54.5 31 53.6 31 L52.1 31 C51.2 31 50.7 30.5 50.7 29.6 L50.7 15.3 Z" id="Fill-14" filter="url(#filter-1)" sketch:type="MSShapeGroup"/>
            <path d="M105.2 27.6 C107.9 27.6 110.1 25.5 110.1 22.5 C110.1 19.4 107.9 17.3 105.2 17.3 C102.5 17.3 100.3 19.4 100.3 22.5 C100.3 25.5 102.5 27.6 105.2 27.6 M105.2 13.8 C110.2 13.8 114.3 17.4 114.3 22.5 C114.3 27.5 110.2 31.1 105.2 31.1 C100.2 31.1 96.2 27.5 96.2 22.5 C96.2 17.4 100.2 13.8 105.2 13.8 " id="Fill-15" filter="url(#filter-2)" sketch:type="MSShapeGroup"/>
            <path d="M162.7 27.6 C165.4 27.6 167.6 25.5 167.6 22.5 C167.6 19.4 165.4 17.3 162.7 17.3 C160 17.3 157.8 19.4 157.8 22.5 C157.8 25.5 160 27.6 162.7 27.6 M162.7 13.8 C167.7 13.8 171.7 17.4 171.7 22.5 C171.7 27.5 167.7 31.1 162.7 31.1 C157.7 31.1 153.7 27.5 153.7 22.5 C153.7 17.4 157.7 13.8 162.7 13.8 " id="Fill-16" filter="url(#filter-3)" sketch:type="MSShapeGroup"/>
            <path d="M117.9 8.6 C117.9 7.7 118.4 7.2 119.3 7.2 L120.8 7.2 C121.7 7.2 122.1 7.7 122.1 8.6 L122.1 25.3 C122.1 27 122.8 27.3 123.5 27.4 C124.1 27.5 124.5 27.8 124.5 28.6 L124.5 29.7 C124.5 30.6 124.1 31.2 123.1 31.2 C120.8 31.2 117.9 30.6 117.9 25.7 L117.9 8.6 Z" id="Fill-17" filter="url(#filter-4)" sketch:type="MSShapeGroup"/>
            <path d="M146.2 15.3 C146.2 14.4 146.7 13.9 147.6 13.9 L149.1 13.9 C150 13.9 150.5 14.4 150.5 15.3 L150.5 29.6 C150.5 30.5 150 31 149.1 31 L147.6 31 C146.7 31 146.2 30.5 146.2 29.6 L146.2 15.3 Z" id="Fill-18" filter="url(#filter-5)" sketch:type="MSShapeGroup"/>
            <path d="M141.7 13.9 L140.1 13.9 C139.3 13.9 138.8 14.3 138.5 15.1 L135.7 23.5 L135.7 23.5 L135.7 23.6 L135.4 24.5 C135.3 24.7 135.3 24.8 135.2 25 L134.7 26.5 L134.1 24.7 C134.1 24.6 134.1 24.6 134 24.5 L130.9 15.1 C130.6 14.3 130.1 13.9 129.3 13.9 L127.7 13.9 C126.7 13.9 126.3 14.5 126.6 15.5 L131.8 29.9 C132.1 30.7 132.6 31 133.4 31 L136.1 31 C136.9 31 137.4 30.7 137.7 29.9 L142.8 15.5 C143.2 14.5 142.3 13.9 141.7 13.9 " id="Fill-19" filter="url(#filter-6)" sketch:type="MSShapeGroup"/>
            <path d="M93.2 13.9 L91.6 13.9 C90.8 13.9 90.3 14.3 90 15.1 L87.2 23.5 L87.2 23.5 L87.1 23.6 L86.8 24.5 C86.8 24.7 86.7 24.8 86.7 25 L86.2 26.5 L85.6 24.7 C85.6 24.6 85.5 24.6 85.5 24.5 L82.3 15.1 C82.1 14.3 81.6 13.9 80.8 13.9 L79.2 13.9 C78.1 13.9 77.7 14.5 78.1 15.5 L83.3 29.9 C83.5 30.7 84.1 31 84.9 31 L87.6 31 C88.4 31 88.9 30.7 89.1 29.9 L94.3 15.5 C94.6 14.5 94.2 13.9 93.2 13.9 " id="Fill-20" filter="url(#filter-7)" sketch:type="MSShapeGroup"/>
            <path d="M63.4 17.1 C64.2 15.7 66 13.5 69.5 13.5 C73.3 13.5 75.5 15.5 75.5 20 L75.5 29.6 C75.5 30.5 75 31 74.1 31 L72.6 31 C71.7 31 71.2 30.5 71.2 29.6 L71.2 20.9 C71.2 18.8 70.7 17.4 68.5 17.4 C65.5 17.4 63.6 19.9 63.6 23 L63.6 29.6 C63.6 30.5 63.1 31 62.2 31 L60.8 31 C59.8 31 59.4 30.5 59.4 29.6 L59.4 15.3 C59.4 14.4 59.8 13.9 60.8 13.9 L62.1 13.9 C63 13.9 63.4 14.4 63.4 15.3 L63.4 17.1 Z" id="Fill-21" filter="url(#filter-8)" sketch:type="MSShapeGroup"/>
            <path d="M21.2 39.2 C7.9 31.4 6.2 25.1 6.1 20.2 C6.1 16.2 7.6 12.5 10.5 9.6 C13.3 6.7 17.1 5.1 21.2 5.1 C25.3 5.1 29.1 6.7 31.9 9.6 C34.8 12.5 36.3 16.2 36.3 20.2 C36.2 25.1 34.5 31.3 21.2 39.2 M35.2 6.4 C31.5 2.6 26.5 0.5 21.2 0.5 C15.9 0.5 10.9 2.6 7.2 6.4 C3.5 10.1 1.5 15 1.6 20.2 C1.6 24.5 2.8 28.3 5.3 31.4 C8.1 35.9 12.6 39.6 19.1 43.3 C19.1 43.3 19.2 43.3 19.3 43.4 C20 43.7 21.8 44.3 23.8 43 C24.1 42.8 24.2 42.7 24.4 42.7 C30.3 39.2 34.5 35.7 37.2 31.4 C39.6 28.3 40.8 24.5 40.8 20.2 C40.9 15 38.9 10.1 35.2 6.4 " id="Fill-22" filter="url(#filter-9)" sketch:type="MSShapeGroup"/>
            <path d="M27.1 24.4 L22.5 21.3 L22.5 13.3 C22.5 12.4 22 11.9 21.1 11.9 L19.9 11.9 C19 11.9 18.5 12.4 18.5 13.3 L18.5 22.3 C18.5 22.4 18.5 22.6 18.5 22.6 C18.6 23 18.7 23.4 19 23.7 L24.8 27.7 C25.1 27.9 25.4 28.1 25.7 28.1 L25.7 28.1 C26 28.1 26.4 27.9 26.8 27.4 L27.5 26.4 C28 25.7 27.8 24.9 27.1 24.4 " id="Fill-23" filter="url(#filter-10)" sketch:type="MSShapeGroup"/>
        </g>
    </g>
</svg>
